# xmcd
#
# Track frame offsets: 
#        183
#        12758
#        25558
#        37858
#        50620
#        62320
#        74345
#        86383
#        99670
#        111270
#        122620
#        134408
#        153070
#        167433
#        181520
#        194745
#        210283
#        222858
#
# Disc length: 3141 seconds
#
# Revision: 1
# Processed by: cddbd v1.5.2PL0 Copyright (c) Steve Scherf et al.
# Submitted via: ExactAudioCopy v0.95b4
#
DISCID=dd0c4312
DTITLE=The Supremes - Het Beste van
DYEAR=1900
DGENRE=Oldies
TTITLE0=The Happening
TTITLE1=Reflections
TTITLE2=You Can't Hurry Love
TTITLE3=Stop! In The Name Of Love
TTITLE4=Baby Love
TTITLE5=You Keep Me Hangin' On
TTITLE6=In And Out Of Love
TTITLE7=Love Child
TTITLE8=Come See About Me
TTITLE9=Where Did Our Love Go
TTITLE10=I Hear A Symphony
TTITLE11=Stoned Love
TTITLE12=Up The Ladder To The Roof
TTITLE13=I'm Gonna Make You Love Me
TTITLE14=I'm Livin' In Shame
TTITLE15=Someday We'll Be Together
TTITLE16=Love Is Here And Now You're Gone
TTITLE17=Back In My Arms Again
EXTD=
EXTT0=
EXTT1=
EXTT2=
EXTT3=
EXTT4=
EXTT5=
EXTT6=
EXTT7=
EXTT8=
EXTT9=
EXTT10=
EXTT11=
EXTT12=
EXTT13=
EXTT14=
EXTT15=
EXTT16=
EXTT17=
PLAYORDER=
